<svg width="190" height="37" viewBox="0 0 190 37" fill="none" xmlns="http://www.w3.org/2000/svg">
<path d="M36.18 31.9145V-3.8147e-06H16.6432V1.98024H34.1997L34.2375 31.9145" fill="#5DD0D7"/>
<path d="M7.95972 6.24608V4.26583H1.98117H0V36.1803H7.95972V34.2001H1.98117V20.2231H4.8367V18.2428H1.98117V6.24608H7.95972Z" fill="#3E4243"/>
<path d="M12.3392 4.26574V6.24599H29.9336V34.2H12.187V36.1802H31.9147V4.26574H12.3392Z" fill="#3E4243"/>
<path d="M43.6061 25.8973V12.53H52.4799V14.548H45.8151V18.1663H51.718V20.2609H45.8151V23.8414H52.7464V25.8973H43.6061Z" fill="#3E4243"/>
<path d="M57.2019 19.1947H58.9913C59.4487 19.1947 59.8297 19.1181 60.134 18.966C60.4393 18.8138 60.7059 18.6228 60.8581 18.395C61.0481 18.1663 61.2003 17.9376 61.239 17.671C61.3146 17.4044 61.3524 17.1766 61.3524 16.947C61.3524 16.757 61.3146 16.4904 61.239 16.2239C61.1624 15.9573 61.0481 15.6908 60.8959 15.4629C60.7437 15.2342 60.4771 15.0433 60.1728 14.8911C59.8675 14.7389 59.4875 14.6624 58.9913 14.6624H57.2019V19.1947ZM54.993 25.8973V12.5299H58.7635C59.4875 12.5299 60.1728 12.6443 60.7437 12.8343C61.3146 13.0252 61.8487 13.3296 62.2674 13.6727C62.6861 14.0149 63.0283 14.5102 63.257 15.0055C63.4858 15.5386 63.6002 16.1482 63.6002 16.7948C63.6002 17.1379 63.5623 17.5188 63.4858 17.8997C63.4092 18.2428 63.2949 18.6228 63.1427 18.966C62.9905 19.3091 62.8005 19.6134 62.5339 19.9178C62.2674 20.2231 61.9621 20.4509 61.6199 20.6796L62.4196 21.9368C62.6861 22.3555 62.9527 22.7743 63.2192 23.193C63.4858 23.6127 63.7523 24.0314 64.0567 24.4879C64.3233 24.9454 64.6286 25.402 64.9707 25.936H62.2674C61.6955 25.0976 61.2003 24.2601 60.7059 23.4983C60.2106 22.7364 59.754 22.0124 59.2966 21.3271H59.1056H57.2398V25.8973H54.993Z" fill="#3E4243"/>
<path d="M66.6473 12.5299H68.8941V25.8972H66.6473V12.5299Z" fill="#3E4243"/>
<path d="M79.8241 25.8973C79.4044 25.3642 78.9857 24.8311 78.6435 24.3736C78.3004 23.8793 77.9195 23.384 77.5386 22.8887C77.1964 22.3934 76.7776 21.899 76.4345 21.4028C76.0914 20.9084 75.6727 20.3753 75.2539 19.88L74.873 20.261C74.7586 20.3753 74.6065 20.4897 74.4921 20.6041V25.8586H72.0166V12.53H74.4921V17.3279C74.4921 17.4423 74.4921 17.5189 74.4543 17.6711C74.4543 17.7854 74.4165 17.8998 74.4165 18.0142C74.4921 17.8998 74.5299 17.862 74.6065 17.7854C74.683 17.7098 74.7208 17.6332 74.7965 17.5189C75.6349 16.7192 76.4345 15.9195 77.1964 15.0433C77.9582 14.2059 78.7579 13.3296 79.5953 12.5678H82.4518C81.5378 13.5584 80.6237 14.5102 79.7475 15.5008C78.8335 16.4905 77.9582 17.4811 77.0433 18.4329C77.5764 19.0804 78.0726 19.7279 78.5291 20.3753C78.9857 20.9841 79.4432 21.6315 79.9006 22.2034C80.3572 22.7743 80.8137 23.4218 81.2712 24.0314C81.7278 24.6402 82.2231 25.2877 82.7184 25.9739L79.8241 25.8973Z" fill="#3E4243"/>
<path d="M86.9073 20.4893H89.9547L88.6588 17.3285C88.6588 17.3285 88.621 17.2142 88.5454 17.062C88.5066 16.9098 88.431 16.7576 88.431 16.6432C88.3923 16.7576 88.3545 16.9098 88.3166 17.062C88.2788 17.2142 88.2401 17.2907 88.2401 17.3285L86.9073 20.4893ZM92.2015 25.897C92.1628 25.7826 92.0871 25.6692 92.0106 25.4404C91.8962 25.2117 91.8206 24.9451 91.6684 24.602C91.554 24.2598 91.3631 23.9545 91.2497 23.5358C91.0965 23.1549 90.9065 22.7361 90.7534 22.3174H86.1455L84.6605 25.8592H82.4137C82.4515 25.7448 82.5659 25.4782 82.7568 25.0217C82.9468 24.5642 83.1756 24.0311 83.4421 23.4214C83.7087 22.8127 84.013 22.0887 84.3562 21.2512C84.6983 20.4506 85.0414 19.6519 85.4224 18.8135C85.8033 17.976 86.1077 17.1763 86.4886 16.3767C86.8308 15.5761 87.1361 14.853 87.4026 14.2055C87.6692 13.558 87.8979 13.0249 88.0879 12.6062C88.2788 12.1874 88.3923 11.8822 88.431 11.7678C88.4688 11.8822 88.5832 12.1487 88.7732 12.6062C88.9641 13.0627 89.1929 13.5958 89.4594 14.2055C89.726 14.8152 90.0303 15.5383 90.3734 16.3767C90.7156 17.1763 91.0587 17.976 91.4397 18.8135C91.8206 19.6519 92.1249 20.4506 92.5059 21.2512C92.8481 22.0509 93.1533 22.7749 93.4199 23.4214C93.6865 24.0689 93.9152 24.602 94.1052 25.0217C94.2961 25.4404 94.4105 25.7448 94.4483 25.8592H92.2015V25.897Z" fill="#3E4243"/>
<path d="M99.1705 24.6025C98.2943 24.1072 97.6468 23.422 97.1525 22.5079C96.695 21.6317 96.4662 20.5655 96.4662 19.3849C96.4662 18.0134 96.7328 16.795 97.2281 15.7666C97.7234 14.7391 98.4465 13.9385 99.3993 13.3676C100.351 12.7967 101.456 12.5301 102.75 12.5301C103.588 12.5301 104.35 12.6445 105.073 12.9111C105.797 13.1389 106.368 13.482 106.825 13.8242C107.091 14.0151 107.206 14.2817 107.206 14.6248C107.206 14.8526 107.13 15.0813 106.978 15.2722C106.825 15.4622 106.635 15.5766 106.406 15.5766C106.254 15.5766 106.14 15.5388 105.987 15.4244C104.959 14.6626 103.893 14.2817 102.75 14.2817C101.417 14.2817 100.428 14.7391 99.7036 15.6522C98.9796 16.5672 98.5996 17.8234 98.5996 19.4615C98.5996 20.7942 98.9418 21.8226 99.5893 22.5457C100.237 23.3076 101.189 23.6885 102.369 23.6885C102.979 23.6885 103.512 23.612 104.007 23.422C104.503 23.231 104.997 22.9654 105.492 22.5845C105.645 22.4692 105.835 22.3936 105.987 22.3936C106.178 22.3936 106.368 22.4692 106.483 22.6223C106.597 22.7745 106.673 22.9654 106.673 23.1932C106.673 23.4598 106.558 23.6885 106.331 23.9172C105.835 24.3738 105.226 24.7169 104.503 24.9835C103.778 25.25 103.017 25.3644 102.217 25.3644C101.036 25.3644 100.047 25.0978 99.1705 24.6025Z" fill="#5DD0D7"/>
<path d="M115.813 22.6985C116.498 22.0123 116.841 21.137 116.918 20.0708L116.956 19.2711H116.232C114.823 19.2711 113.718 19.3467 112.957 19.4989C112.157 19.652 111.624 19.8798 111.281 20.2229C110.938 20.5651 110.786 21.0226 110.786 21.5935C110.786 22.241 111.014 22.7363 111.472 23.1172C111.929 23.4981 112.538 23.6881 113.337 23.6881C114.328 23.7269 115.128 23.3838 115.813 22.6985ZM119.165 16.7577C119.165 17.0621 119.165 17.2909 119.126 17.443L118.593 24.3734C118.593 24.6787 118.479 24.9075 118.289 25.0596C118.099 25.2118 117.87 25.2884 117.564 25.2884C117.26 25.2884 117.031 25.174 116.841 24.9831C116.651 24.7931 116.575 24.5644 116.613 24.26L116.689 23.155C116.308 23.8412 115.813 24.3734 115.166 24.7544C114.518 25.1362 113.757 25.3262 112.919 25.3262C111.7 25.3262 110.672 24.9831 109.91 24.3356C109.11 23.6503 108.729 22.8129 108.729 21.7845C108.729 20.8704 108.958 20.1086 109.453 19.5755C109.948 19.0424 110.71 18.6236 111.815 18.3561C112.881 18.0896 114.366 17.9761 116.194 17.9761H117.108L117.146 17.2521L117.184 16.7577C117.184 15.8815 116.956 15.2341 116.537 14.8153C116.118 14.3966 115.432 14.2057 114.557 14.2057C113.337 14.2057 112.042 14.6244 110.634 15.4628C110.481 15.5384 110.329 15.5762 110.214 15.5762C110.024 15.5762 109.834 15.5006 109.72 15.3484C109.568 15.1962 109.529 15.0053 109.529 14.7766C109.529 14.3966 109.682 14.1291 110.024 13.9004C110.634 13.4816 111.357 13.1394 112.233 12.8729C113.071 12.6063 113.909 12.492 114.747 12.492C117.679 12.5298 119.165 13.9391 119.165 16.7577Z" fill="#5DD0D7"/>
<path d="M130.133 12.7582C130.285 12.9113 130.361 13.1013 130.361 13.3678C130.361 13.9775 130.018 14.3197 129.371 14.3575L128.685 14.434C127.467 14.5484 126.515 14.9293 125.905 15.539C125.296 16.1477 124.954 17.0239 124.839 18.1667L124.344 24.3362C124.344 24.6784 124.23 24.9449 124.002 25.0971C123.772 25.2493 123.544 25.3636 123.239 25.3636C122.935 25.3636 122.706 25.288 122.516 25.0971C122.326 24.9449 122.249 24.6784 122.249 24.3362L123.126 13.5966C123.126 13.2913 123.239 13.0634 123.468 12.8725C123.697 12.7203 123.925 12.606 124.23 12.606C124.534 12.606 124.725 12.6816 124.915 12.8347C125.067 12.9869 125.144 13.2156 125.144 13.52L125.029 14.8528C125.486 14.1675 126.02 13.6344 126.705 13.2913C127.39 12.9491 128.19 12.7203 129.143 12.6438L129.409 12.606C129.752 12.5682 129.98 12.606 130.133 12.7582Z" fill="#5DD0D7"/>
<path d="M142.548 12.7203C142.815 12.7203 143.043 12.7969 143.233 12.9869C143.424 13.1391 143.539 13.3678 143.539 13.6343C143.539 13.7865 143.5 13.9387 143.424 14.0909L137.864 24.5261C137.711 24.7927 137.559 24.9827 137.33 25.0971C137.102 25.2493 136.874 25.288 136.607 25.288C136.303 25.288 136.073 25.2114 135.845 25.0593C135.617 24.9071 135.465 24.6783 135.35 24.4118L131.542 13.9775C131.504 13.8243 131.465 13.7487 131.465 13.6343C131.465 13.3678 131.58 13.1391 131.808 12.9491C132.037 12.7581 132.266 12.6816 132.532 12.6816C132.722 12.6816 132.875 12.7203 133.066 12.8347C133.218 12.9491 133.332 13.1012 133.408 13.2912L136.797 22.8881L141.748 13.2156C141.901 12.9112 142.167 12.7203 142.548 12.7203Z" fill="#5DD0D7"/>
<path d="M151.726 22.6985C152.412 22.0123 152.755 21.137 152.83 20.0708L152.869 19.2711H152.145C150.736 19.2711 149.632 19.3467 148.87 19.4989C148.07 19.652 147.537 19.8798 147.194 20.2229C146.852 20.5651 146.699 21.0226 146.699 21.5935C146.699 22.241 146.927 22.7363 147.385 23.1172C147.841 23.4981 148.451 23.6881 149.251 23.6881C150.241 23.7269 151.041 23.3838 151.726 22.6985ZM155.077 16.7577C155.077 17.0621 155.077 17.2909 155.039 17.443L154.506 24.3734C154.506 24.6787 154.392 24.9075 154.202 25.0596C154.012 25.2118 153.782 25.2884 153.478 25.2884C153.173 25.2884 152.945 25.174 152.755 24.9831C152.564 24.7931 152.488 24.5644 152.526 24.26L152.602 23.155C152.222 23.8412 151.726 24.3734 151.079 24.7544C150.431 25.1362 149.669 25.3262 148.832 25.3262C147.614 25.3262 146.585 24.9831 145.823 24.3356C145.024 23.6503 144.643 22.8129 144.643 21.7845C144.643 20.8704 144.871 20.1086 145.366 19.5755C145.861 19.0424 146.623 18.6236 147.728 18.3561C148.793 18.0896 150.279 17.9761 152.107 17.9761H153.021L153.059 17.2521L153.097 16.7577C153.097 15.8815 152.869 15.2341 152.45 14.8153C152.031 14.3966 151.345 14.2057 150.469 14.2057C149.251 14.2057 147.956 14.6244 146.546 15.4628C146.394 15.5384 146.242 15.5762 146.128 15.5762C145.938 15.5762 145.747 15.5006 145.633 15.3484C145.48 15.1962 145.442 15.0053 145.442 14.7766C145.442 14.3966 145.595 14.1291 145.938 13.9004C146.546 13.4816 147.27 13.1394 148.147 12.8729C148.984 12.6063 149.823 12.492 150.66 12.492C153.592 12.5298 155.077 13.9391 155.077 16.7577Z" fill="#5DD0D7"/>
<path d="M158.505 25.0596C158.314 24.9065 158.238 24.64 158.238 24.2978L159.533 8.15056C159.533 7.84527 159.686 7.57871 159.876 7.42653C160.104 7.27434 160.333 7.19779 160.638 7.19779C160.943 7.19779 161.171 7.27434 161.324 7.42653C161.514 7.57871 161.59 7.84527 161.551 8.15056L160.256 24.2978C160.256 24.64 160.142 24.9065 159.914 25.0596C159.686 25.2118 159.457 25.3262 159.152 25.3262C158.924 25.2884 158.657 25.2118 158.505 25.0596Z" fill="#5DD0D7"/>
<path d="M174.234 13.6341C174.958 14.3581 175.338 15.4243 175.338 16.7949C175.338 17.1002 175.338 17.328 175.3 17.4802L174.767 24.2981C174.729 24.6403 174.615 24.9068 174.425 25.0599C174.234 25.2121 173.967 25.3256 173.701 25.3256C173.396 25.3256 173.13 25.2499 172.939 25.0599C172.749 24.9068 172.672 24.6403 172.71 24.2981L173.243 17.5946C173.243 17.4802 173.282 17.2902 173.282 17.0615C173.282 15.1956 172.368 14.2438 170.578 14.2438C169.435 14.2438 168.521 14.5869 167.836 15.2722C167.15 15.9574 166.769 16.9093 166.655 18.0899L166.16 24.2603C166.16 24.6025 166.046 24.869 165.818 25.0212C165.627 25.1734 165.36 25.2877 165.056 25.2877C164.751 25.2877 164.523 25.2121 164.332 25.0212C164.142 24.869 164.065 24.6025 164.104 24.2603L165.398 8.07429C165.398 7.76992 165.55 7.54118 165.741 7.38899C165.97 7.23589 166.198 7.12152 166.503 7.12152C166.807 7.12152 167.036 7.19807 167.226 7.35025C167.378 7.50336 167.455 7.73118 167.455 8.03647L166.922 14.6247C167.378 13.9394 167.95 13.4054 168.674 13.0244C169.397 12.6444 170.197 12.4535 171.111 12.4535C172.444 12.5301 173.51 12.911 174.234 13.6341Z" fill="#5DD0D7"/>
<path d="M186.801 22.2414C187.487 21.3274 187.83 20.0324 187.83 18.4331C187.83 17.1003 187.525 16.0341 186.878 15.3101C186.23 14.587 185.354 14.206 184.174 14.206C182.955 14.206 181.965 14.6626 181.279 15.6144C180.594 16.5672 180.251 17.8234 180.251 19.4228C180.251 20.7943 180.555 21.8227 181.203 22.5458C181.812 23.2698 182.727 23.612 183.945 23.612C185.164 23.6507 186.154 23.1932 186.801 22.2414ZM180.898 24.6026C180.022 24.1073 179.375 23.422 178.88 22.5079C178.423 21.5939 178.194 20.5655 178.194 19.3471C178.194 17.9756 178.461 16.795 178.956 15.7666C179.451 14.7392 180.137 13.9395 181.051 13.3677C181.965 12.7967 182.993 12.5302 184.211 12.5302C185.392 12.5302 186.383 12.758 187.259 13.2533C188.134 13.7486 188.782 14.4339 189.277 15.3479C189.733 16.2619 190 17.3281 190 18.5096C190 19.8802 189.733 21.0608 189.239 22.0892C188.744 23.1176 188.02 23.9173 187.106 24.4882C186.192 25.06 185.125 25.3257 183.945 25.3257C182.764 25.3644 181.774 25.0979 180.898 24.6026Z" fill="#5DD0D7"/>
</svg>
